<svg width="36" height="36" viewBox="0 0 36 36" fill="none" xmlns="http://www.w3.org/2000/svg">
<path d="M35.984 15.3692C35.6801 15.673 35.2803 15.705 34.8805 15.705C23.6215 15.705 12.3625 15.705 1.1195 15.705C0.703687 15.705 0.319859 15.673 0.0159939 15.3692C0.0159939 10.4434 0.0159929 5.51755 0 0.591739C0 0.159931 0.0159919 0 0.543757 0C12.1706 0.0159929 23.8134 0.0159929 35.4403 0C35.968 0 35.984 0.175924 35.984 0.591739C35.984 5.51755 35.984 10.4434 35.984 15.3692ZM17.896 14.3456C19.3354 14.3456 20.7748 14.3456 22.2141 14.3456C26.0684 14.3456 29.9387 14.3456 33.793 14.3456C34.2248 14.3456 34.6726 14.4096 34.6726 13.7379C34.6566 11.179 34.6726 8.62017 34.6726 6.06131C34.6726 5.66149 34.4967 5.46957 34.0968 5.48556C33.5051 5.48556 32.9294 5.46957 32.3376 5.48556C31.8578 5.50156 31.6659 5.27765 31.6659 4.81386C31.6659 4.36606 31.8259 4.09418 32.3216 4.12617C32.5935 4.14216 32.8494 4.12617 33.1213 4.12617C34.8005 4.12617 34.8645 4.0462 34.6726 2.36695C34.5926 1.71124 34.2408 1.3594 33.5851 1.32741C33.3132 1.31142 33.0573 1.31142 32.7854 1.31142C22.9338 1.31142 13.0822 1.31142 3.21457 1.31142C2.94269 1.31142 2.68681 1.31142 2.41493 1.32741C1.71124 1.3594 1.3434 1.72723 1.31142 2.43092C1.29542 2.79876 1.31142 3.18259 1.29543 3.55042C1.29543 3.95025 1.47135 4.14216 1.87117 4.12617C2.4629 4.12617 3.03865 4.14216 3.63039 4.12617C4.11017 4.11018 4.30209 4.33407 4.30209 4.79787C4.30209 5.24567 4.14216 5.50156 3.64638 5.48556C3.21457 5.46957 2.79876 5.48556 2.36695 5.48556C1.29542 5.48556 1.29542 5.48556 1.27943 6.5251C1.27943 8.79609 1.31142 11.0511 1.26344 13.3221C1.24744 14.1377 1.48734 14.3616 2.30298 14.3616C7.51666 14.3296 12.7143 14.3456 17.896 14.3456Z" fill="#F7F4F4"/>
<path d="M17.2719 36C16.5682 35.5362 16.0724 34.9445 16.1364 34.0489C16.2004 33.2013 16.7601 32.5776 17.6078 32.3856C18.4074 32.2097 19.255 32.5776 19.6389 33.2972C20.0387 34.0329 19.9267 34.9125 19.335 35.5043C19.1431 35.6962 18.9192 35.8401 18.7113 36C18.2315 36 17.7517 36 17.2719 36Z" fill="#F7F4F4"/>
<path d="M18.7119 24.1013C18.7119 25.9885 18.7119 27.8756 18.7119 29.7628C18.7119 30.2746 18.6959 30.7224 17.9762 30.7224C17.2565 30.7224 17.2725 30.2426 17.2725 29.7468C17.2725 25.9245 17.2725 22.0862 17.2725 18.2639C17.2725 17.7521 17.2885 17.3043 18.0082 17.3043C18.7278 17.3043 18.7119 17.7841 18.7119 18.2799C18.7119 20.215 18.7119 22.1502 18.7119 24.1013Z" fill="#F7F4F4"/>
<path d="M7.82036 26.3563C8.89189 26.3723 9.67554 27.1719 9.65955 28.2595C9.64355 29.283 8.82792 30.0827 7.82036 30.0986C6.81281 30.0986 5.9332 29.219 5.91721 28.2115C5.90122 27.156 6.76483 26.3403 7.82036 26.3563Z" fill="#F7F4F4"/>
<path d="M28.2114 26.3563C29.2349 26.3563 30.0506 27.156 30.0666 28.1635C30.0825 29.1711 29.2189 30.0667 28.1954 30.0827C27.1718 30.0987 26.3242 29.251 26.3242 28.1955C26.3402 27.124 27.1399 26.3403 28.2114 26.3563Z" fill="#F7F4F4"/>
<path d="M7.13269 20.9667C7.13269 19.9751 7.14868 18.9996 7.13269 18.008C7.1167 17.4962 7.3246 17.2883 7.83638 17.2883C8.31616 17.2883 8.50808 17.5122 8.50808 17.976C8.50808 19.9751 8.50808 21.9742 8.50808 23.9734C8.50808 24.4691 8.31616 24.693 7.80439 24.693C7.24464 24.693 7.13269 24.4052 7.14868 23.9254C7.14868 22.9338 7.13269 21.9583 7.13269 20.9667Z" fill="#F7F4F4"/>
<path d="M28.851 21.0467C28.851 22.0062 28.835 22.9658 28.851 23.9254C28.851 24.3892 28.755 24.693 28.1953 24.693C27.6675 24.693 27.4756 24.4691 27.4756 23.9734C27.4756 21.9742 27.4756 19.9751 27.4756 17.976C27.4756 17.5122 27.6675 17.2883 28.1313 17.2883C28.6271 17.2883 28.851 17.4962 28.835 18.008C28.835 19.0156 28.851 20.0391 28.851 21.0467Z" fill="#F7F4F4"/>
<path d="M18.0237 9.54773C22.7896 9.54773 27.5555 9.54773 32.3213 9.54773C33.5528 9.54773 33.6328 9.64369 33.6488 10.8591C33.6488 11.227 33.6328 11.6108 33.6488 11.9787C33.6647 12.4265 33.5208 12.6823 33.025 12.6823C32.5133 12.6983 32.3213 12.4904 32.2894 11.9787C32.2254 10.9071 32.2094 10.9071 31.1539 10.9071C22.3898 10.9071 13.6257 10.9071 4.87755 10.9071C3.79003 10.9071 3.77404 10.9071 3.72606 11.9627C3.71007 12.4424 3.55014 12.6983 3.02237 12.6983C2.46262 12.6983 2.35067 12.4105 2.36666 11.9307C2.38266 11.4989 2.36666 11.083 2.36666 10.6512C2.38266 9.69166 2.52659 9.54773 3.50216 9.54773C8.33201 9.54773 13.1779 9.54773 18.0237 9.54773Z" fill="#F7F4F4"/>
<path d="M17.9605 12.6824C13.8663 12.6824 9.75618 12.6824 5.662 12.6824C5.1982 12.6824 4.73441 12.7304 4.7504 12.0267C4.76639 11.5789 4.89434 11.307 5.39012 11.323C5.51806 11.323 5.662 11.323 5.78994 11.323C13.9303 11.323 22.0867 11.323 30.2271 11.339C30.6109 11.339 31.1227 11.1311 31.2506 11.7868C31.3786 12.4585 31.1707 12.6824 30.355 12.6824C26.2129 12.6984 22.0867 12.6824 17.9605 12.6824Z" fill="#F7F4F4"/>
<path d="M18.0086 6.71704C16.9531 6.71704 15.8816 6.71704 14.8261 6.71704C14.0744 6.71704 13.6906 6.39719 13.7226 5.61354C13.7545 5.03779 13.7385 4.44605 13.7226 3.85432C13.7226 3.27857 13.9944 2.91074 14.5702 2.91074C16.8572 2.89474 19.1441 2.89474 21.4311 2.91074C22.0069 2.91074 22.2947 3.24659 22.2947 3.83832C22.2947 4.44605 22.2787 5.05378 22.2947 5.67751C22.3107 6.38119 21.9749 6.71704 21.2872 6.71704C20.1837 6.73304 19.0962 6.71704 18.0086 6.71704ZM17.9127 5.29368C18.7123 5.29368 19.512 5.29368 20.2956 5.29368C20.6155 5.29368 20.8874 5.22971 20.8874 4.81389C20.8874 4.41407 20.6155 4.3341 20.2956 4.3341C18.7603 4.3341 17.209 4.3341 15.6737 4.3341C15.3538 4.3341 15.0819 4.39808 15.0819 4.81389C15.0819 5.21371 15.3538 5.29368 15.6737 5.29368C16.4254 5.29368 17.177 5.29368 17.9127 5.29368Z" fill="#F7F4F4"/>
</svg>
