<svg width="32" height="28" viewBox="0 0 32 28" fill="none" xmlns="http://www.w3.org/2000/svg">
<path d="M30.1569 13.5572C29.6258 13.0959 29.1505 12.5718 28.6473 12.0756C27.648 11.0832 26.6486 10.0908 25.6492 9.09139C24.5869 8.02911 23.5316 6.95984 22.4693 5.89755C21.4839 4.91215 20.4915 3.93373 19.5061 2.94832C18.8911 2.33331 18.2761 1.72529 17.6751 1.1033C17.5493 0.977502 17.4724 0.956538 17.3326 1.09631C16.48 1.95592 15.6204 2.80156 14.7678 3.65418C13.8243 4.60464 12.8808 5.55511 11.9373 6.50557C10.8681 7.57484 9.7918 8.63014 8.72253 9.69941C7.66723 10.7547 6.61194 11.817 5.56363 12.8793C5.36794 13.075 5.16527 13.2706 4.9626 13.4663C4.92766 13.5013 4.86476 13.5362 4.87874 13.5991C4.8997 13.669 4.97658 13.662 5.03948 13.662C5.11635 13.662 5.19323 13.662 5.2701 13.662C7.76507 13.662 10.267 13.669 12.762 13.655C13.0136 13.655 13.1254 13.7179 13.1534 13.9765C13.2372 14.7453 13.2233 15.507 13.1604 16.2758C13.0765 17.2542 12.8808 18.2047 12.5174 19.1272C12.0212 20.3851 11.2734 21.4614 10.2461 22.342C9.13486 23.2925 7.84894 23.9005 6.45119 24.3058C4.82282 24.7741 3.15951 24.9628 1.46824 24.9767C1.05591 24.9767 1.05591 24.9767 1.03494 25.3821C1.02795 25.4659 1.01398 25.5498 1 25.6337C1 25.8224 1 26.0041 1 26.1928C2.20905 26.3605 3.41111 26.5003 4.63413 26.5422C6.22057 26.6051 7.79303 26.5352 9.36548 26.3256C10.5606 26.1648 11.7277 25.8992 12.8808 25.5428C13.8243 25.2493 14.7328 24.8719 15.5994 24.3967C16.8085 23.7397 17.8917 22.922 18.8282 21.9087C19.8346 20.8184 20.6033 19.5814 21.1485 18.2047C21.6866 16.8628 22.0011 15.4721 22.1548 14.0324C22.1968 13.662 22.1968 13.669 22.5602 13.662C25.0901 13.662 27.62 13.662 30.1499 13.655C30.1569 13.6201 30.1569 13.5921 30.1569 13.5572Z" stroke="#F7F4F4" stroke-width="1.7" stroke-miterlimit="10"/>
</svg>
