<svg width="35" height="34" viewBox="0 0 35 34" fill="none" xmlns="http://www.w3.org/2000/svg">
<path d="M13.3083 19.7296C16.9775 19.7296 20.664 19.7641 24.3332 19.7296C28.7259 19.6779 32.4468 16.4566 33.0325 12.2361C33.6699 7.61945 31.0515 3.38174 26.6932 2.17589C23.5408 1.29735 20.664 1.9175 18.1834 4.10525C18.0111 4.26029 17.8561 4.43255 17.6666 4.55314C17.2531 4.82876 16.8397 4.81153 16.5124 4.43255C16.1679 4.05357 16.1851 3.64014 16.5124 3.27839C17.1498 2.55488 17.9077 1.9864 18.7174 1.50406C25.5218 -2.54415 34.3073 2.02085 34.9102 9.92778C35.3753 16.0259 30.862 21.2628 24.7639 21.5212C17.701 21.7968 10.6382 21.5728 3.57536 21.6245C2.83463 21.6245 2.07666 21.6418 1.33593 21.6245C0.698549 21.6073 0.0439453 21.4867 0.0439453 20.6943C0.0439453 19.9019 0.715777 19.7813 1.35315 19.7641C4.71231 19.7468 8.07146 19.7641 11.4306 19.7468C12.0508 19.7296 12.6709 19.7296 13.3083 19.7296Z" fill="#F78203"/>
<path d="M13.3768 17.7141C9.48367 17.7141 5.57328 17.7141 1.6801 17.7141C1.37003 17.7141 1.04273 17.7314 0.732652 17.6624C0.301991 17.5591 0.0263672 17.2662 0.0263672 16.8011C0.0263672 16.3877 0.284764 16.0776 0.680972 15.9915C1.04273 15.9053 1.42171 15.9053 1.78346 15.9053C9.62149 15.9053 17.4423 15.9053 25.2803 15.8881C27.7954 15.8881 29.5352 13.8037 29.0357 11.4437C28.4844 8.77361 25.3492 7.61943 23.1442 9.25594C22.6102 9.65215 22.1106 10.2206 21.456 9.49712C21.0082 8.99755 21.2665 8.41186 22.1623 7.75725C24.0917 6.36191 26.7101 6.34468 28.605 7.7228C30.5344 9.11814 31.3612 11.5298 30.6894 13.7348C29.9831 16.0604 27.9159 17.6797 25.5215 17.6969C21.4733 17.7313 17.4251 17.7141 13.3768 17.7141Z" fill="#F78203"/>
<path d="M11.6029 23.5194C14.9103 23.5194 18.2006 23.5022 21.5081 23.5194C23.8336 23.5367 25.5563 24.6736 26.3142 26.6202C27.1066 28.6357 26.4004 30.9612 24.626 32.2015C22.8862 33.4246 20.4228 33.3385 18.8552 31.9948C18.5451 31.7364 18.235 31.4608 18.235 31.0129C18.235 30.6684 18.4245 30.41 18.7346 30.2722C19.1997 30.0482 19.5442 30.2894 19.906 30.565C21.3358 31.6331 23.0757 31.4953 24.1437 30.2377C25.5735 28.5496 24.6433 25.845 22.4555 25.4488C21.9215 25.3454 21.3702 25.3282 20.8362 25.311C14.4108 25.311 7.98531 25.311 1.55986 25.311C0.422914 25.311 -0.0766527 25.0354 0.00947942 24.4152C0.147291 23.4677 0.922483 23.5194 1.61154 23.5194C4.95347 23.5194 8.27817 23.5194 11.6029 23.5194Z" fill="#F78203"/>
<path d="M8.86409 12.0811C11.3619 12.0811 13.8597 12.0983 16.3576 12.0811C17.8046 12.0639 18.7004 11.3404 18.7693 10.1518C18.821 9.32488 18.5109 8.68751 17.8046 8.25684C17.1155 7.82618 16.392 7.82619 15.6858 8.23962C15.5307 8.32575 15.4101 8.44634 15.2723 8.53247C14.8072 8.85978 14.3421 8.89422 13.9803 8.42911C13.6014 7.94677 13.8081 7.51611 14.1871 7.13713C15.9614 5.34558 19.1827 6.03464 20.2508 8.41189C21.2499 10.6341 19.9751 13.1836 17.5807 13.7176C17.1328 13.821 16.6677 13.8554 16.2198 13.8554C11.3964 13.8727 6.57297 13.8554 1.74957 13.8554C1.45673 13.8554 1.1811 13.8554 0.888253 13.8038C0.388687 13.7176 0.00970536 13.442 0.0269318 12.908C0.0441582 12.3223 0.457593 12.0811 1.02606 12.0639C3.14491 12.0639 5.28099 12.0639 7.39984 12.0639C7.88218 12.0811 8.36452 12.0811 8.86409 12.0811Z" fill="#F78203"/>
</svg>
