<svg width="34" height="34" viewBox="0 0 34 34" fill="none" xmlns="http://www.w3.org/2000/svg">
<path fill-rule="evenodd" clip-rule="evenodd" d="M9.23877 3.09091C5.84959 3.09091 3.09091 5.84954 3.09091 9.23872V24.7613C3.09091 28.1505 5.84959 30.9091 9.23877 30.9091H24.7612C28.1504 30.9091 30.9091 28.1505 30.9091 24.7613V9.23872C30.9091 5.84954 28.1504 3.09091 24.7612 3.09091H9.23877ZM24.7612 34H9.23877C4.14495 34 0 29.8551 0 24.7613V9.23872C0 4.1449 4.14495 0 9.23877 0H24.7612C29.855 0 34 4.1449 34 9.23872V24.7613C34 29.8551 29.855 34 24.7612 34Z" fill="#F7F4F4"/>
<path fill-rule="evenodd" clip-rule="evenodd" d="M18.1336 12.4667C14.3834 12.4667 11.3336 15.5164 11.3336 19.2667C11.3336 23.0168 14.3834 26.0667 18.1336 26.0667C21.8838 26.0667 24.9336 23.0168 24.9336 19.2667C24.9336 15.5164 21.8838 12.4667 18.1336 12.4667ZM18.1336 29.4667C12.5083 29.4667 7.93359 24.8919 7.93359 19.2667C7.93359 13.6414 12.5083 9.06665 18.1336 9.06665C23.7589 9.06665 28.3336 13.6414 28.3336 19.2667C28.3336 24.8919 23.7589 29.4667 18.1336 29.4667Z" fill="#F7F4F4"/>
<path fill-rule="evenodd" clip-rule="evenodd" d="M26.273 9.27279C25.4214 9.27279 24.7275 8.57888 24.7275 7.72734C24.7275 6.87579 25.4214 6.18188 26.273 6.18188C27.1245 6.18188 27.8184 6.87579 27.8184 7.72734C27.8184 8.57888 27.1245 9.27279 26.273 9.27279Z" fill="#F7F4F4"/>
</svg>
