<svg width="37" height="38" viewBox="0 0 37 38" fill="none" xmlns="http://www.w3.org/2000/svg">
<path d="M18.3509 33.4847C17.4668 33.4587 16.7387 33.4414 16.0107 33.4154C15.7766 33.4067 15.5426 33.3807 15.3173 33.3547C15.1699 33.3374 15.0746 33.3807 14.9792 33.4934C13.9218 34.6895 12.8643 35.877 11.8069 37.0644C11.5295 37.3765 11.2261 37.6538 10.8448 37.8445C10.1427 38.1912 9.24993 37.9659 8.98124 37.0904C8.87722 36.7524 8.80788 36.397 8.80788 36.0503C8.79055 34.8629 8.81655 33.6754 8.83389 32.4879C8.83389 32.2972 8.77321 32.2192 8.59119 32.1672C6.84034 31.6472 5.26283 30.8151 3.93669 29.5323C2.71455 28.3448 1.86513 26.932 1.26706 25.3458C0.816345 24.1324 0.512979 22.8842 0.365629 21.6014C0.270286 20.778 0.174942 19.9459 0.148939 19.1138C0.105601 17.8397 0.0882654 16.5655 0.122936 15.2914C0.148939 14.2946 0.21828 13.2892 0.339626 12.3011C0.573652 10.2295 1.07637 8.22729 2.06448 6.36375C3.13926 4.33553 4.77744 2.92271 6.849 1.98661C8.36584 1.30186 9.95201 0.833813 11.5815 0.547781C12.6476 0.365762 13.7224 0.235747 14.7972 0.114401C15.3086 0.0537275 15.8287 0.0537281 16.34 0.0363928C16.8948 0.0190576 17.4408 -0.00694601 17.9956 0.00172161C19.053 0.0277244 20.1191 0.0363923 21.1766 0.114401C23.2221 0.253083 25.233 0.573784 27.1919 1.18918C28.5007 1.59656 29.7575 2.12529 30.9276 2.86203C32.4705 3.83281 33.5626 5.18495 34.3427 6.81447C35.0101 8.21862 35.4261 9.69211 35.6948 11.2176C35.8855 12.3184 36.0155 13.4192 36.0589 14.5373C36.0849 15.3347 36.1282 16.1321 36.1109 16.9296C36.0935 17.8917 36.0502 18.8451 35.9635 19.7985C35.8595 21.0727 35.7468 22.3555 35.4695 23.6036C35.0274 25.5798 34.2647 27.3914 32.9212 28.9429C31.699 30.3557 30.1735 31.3438 28.414 31.9419C26.8799 32.4619 25.311 32.8693 23.7075 33.0687C22.6847 33.1987 21.6533 33.3114 20.6218 33.3894C19.8244 33.45 19.001 33.4587 18.3509 33.4847ZM9.81333 35.3916C9.81333 35.7383 9.78732 36.085 9.81333 36.4317C9.83933 36.7697 10.082 36.8911 10.3854 36.7351C10.4721 36.6917 10.5587 36.6224 10.6281 36.553C10.7754 36.4057 10.9228 36.2583 11.0615 36.0937C12.5696 34.3428 14.0691 32.5833 15.5773 30.8237C15.664 30.7284 15.742 30.6937 15.872 30.6937C16.7647 30.7111 17.6575 30.7371 18.5503 30.7284C19.2437 30.7197 19.9371 30.6764 20.6305 30.6244C21.3326 30.5724 22.026 30.4944 22.7194 30.399C24.0715 30.217 25.3977 29.8963 26.7152 29.5323C28.5267 29.0296 30.0522 28.0761 31.179 26.5506C32.1498 25.2505 32.6958 23.7596 32.9645 22.1821C33.1032 21.3934 33.1812 20.596 33.2592 19.7985C33.3372 18.9145 33.4066 18.0304 33.4239 17.1463C33.4412 16.2708 33.3979 15.3954 33.3719 14.52C33.3372 13.5059 33.1985 12.5004 33.0079 11.5123C32.7392 10.1515 32.3405 8.83402 31.673 7.61189C31.049 6.47643 30.2256 5.54033 29.0814 4.89892C28.258 4.43954 27.3999 4.0755 26.5071 3.78947C25.4324 3.44276 24.3402 3.17407 23.2221 3.02672C22.234 2.8967 21.2459 2.79269 20.2578 2.71468C19.5557 2.66268 18.8536 2.64534 18.1516 2.64534C17.1895 2.64534 16.2274 2.64534 15.2739 2.72335C14.2771 2.80136 13.2717 2.94004 12.2836 3.1134C10.7754 3.37342 9.31927 3.81547 7.95846 4.50888C7.16104 4.91626 6.41562 5.39298 5.79155 6.03438C4.6561 7.21318 3.95402 8.64333 3.50331 10.2035C2.99192 11.989 2.8359 13.8179 2.79256 15.6554C2.76656 16.5829 2.76656 17.5016 2.78389 18.4291C2.79256 19.1051 2.84457 19.7812 2.8879 20.4573C2.94858 21.3761 3.12193 22.2775 3.35595 23.1616C3.772 24.6784 4.43074 26.0739 5.51419 27.244C6.63231 28.4575 8.01046 29.2289 9.5793 29.697C9.76999 29.749 9.81333 29.8356 9.81333 30.0177C9.81333 31.8119 9.81333 33.6061 9.81333 35.3916Z" fill="#F7F4F4"/>
<path d="M23.7163 27.0185C23.2309 27.0011 22.8149 26.8018 22.3988 26.6284C19.6512 25.4756 17.0596 24.0455 14.7973 22.0866C13.0985 20.6131 11.7203 18.8709 10.5762 16.9467C9.7701 15.5859 9.01602 14.1904 8.42662 12.7169C8.29661 12.3962 8.1666 12.0669 8.08859 11.7288C7.94991 11.1481 8.09726 10.6107 8.40062 10.108C8.88601 9.31055 9.58808 8.72982 10.3682 8.23577C10.5935 8.09709 10.8536 7.99308 11.1049 7.92373C11.5903 7.79372 12.015 7.96707 12.3357 8.33978C13.2111 9.37122 14.0432 10.4287 14.7193 11.6075C14.9707 12.0495 15.092 12.5002 14.9793 13.003C14.91 13.3237 14.7366 13.575 14.4853 13.7744C14.2253 13.9737 13.9652 14.1818 13.7052 14.3898C13.2892 14.7191 13.1331 15.2219 13.3152 15.7246C14.0866 17.9088 15.3781 19.6857 17.3803 20.8991C17.9957 21.2719 18.6544 21.5406 19.3478 21.7312C19.8332 21.8613 20.3186 21.7052 20.6393 21.3065C20.8126 21.0898 21.0033 20.8818 21.1507 20.6565C21.6447 19.9024 22.5895 19.833 23.2396 20.2144C23.8636 20.5871 24.479 20.9685 25.0684 21.3932C25.6232 21.7832 26.1346 22.234 26.6633 22.6587C27.1487 23.0574 27.27 23.6641 26.9926 24.2709C26.6719 24.9643 26.1692 25.5363 25.6318 26.065C25.3025 26.3857 24.9298 26.6544 24.4964 26.8105C24.2363 26.9145 23.9763 26.9578 23.7163 27.0185Z" fill="#F7F4F4"/>
<path d="M18.0646 6.81458C21.6097 6.96193 24.4353 8.40075 26.3335 11.4517C27.0183 12.5525 27.4083 13.7747 27.5817 15.0575C27.6683 15.7162 27.7117 16.375 27.7637 17.0424C27.7897 17.3197 27.625 17.5364 27.3736 17.5884C27.1743 17.6318 26.9143 17.4931 26.8709 17.2937C26.8362 17.129 26.8276 16.947 26.8189 16.7737C26.7929 15.4735 26.5936 14.2081 26.0822 13.0033C24.9554 10.3683 22.9618 8.73012 20.2142 8.00204C19.4428 7.79402 18.6627 7.73334 17.8653 7.71601C17.5879 7.70734 17.3799 7.51665 17.3799 7.26529C17.3799 7.01393 17.5966 6.81458 17.8653 6.80591C17.9259 6.80591 17.9953 6.81458 18.0646 6.81458Z" fill="#F7F4F4"/>
<path d="M25.2156 15.7335C25.2156 15.8808 25.2156 16.0368 25.2156 16.1842C25.2069 16.4009 25.0596 16.5656 24.8602 16.5916C24.6089 16.6262 24.4008 16.5135 24.3402 16.2882C24.3142 16.1842 24.3055 16.0628 24.3055 15.9502C24.3228 14.8147 24.0628 13.7486 23.4387 12.7865C22.5893 11.4777 21.3672 10.7149 19.859 10.3942C19.4603 10.3075 19.0529 10.2729 18.6542 10.2122C18.3855 10.1775 18.2208 9.97816 18.2468 9.71814C18.2642 9.47544 18.4895 9.27609 18.7495 9.30209C19.599 9.3801 20.4397 9.51878 21.2285 9.84815C23.3607 10.7322 24.6522 12.3098 25.1029 14.572C25.1809 14.9534 25.1983 15.3434 25.2503 15.7248C25.2329 15.7248 25.2243 15.7248 25.2156 15.7335Z" fill="#F7F4F4"/>
<path d="M22.7536 15.1615C22.7536 15.5689 22.5889 15.7596 22.3116 15.7682C22.0169 15.7769 21.8609 15.6035 21.8349 15.2828C21.8262 15.1095 21.7915 14.9361 21.7655 14.7628C21.5835 13.6273 20.8554 12.9512 19.7113 12.8386C19.5899 12.8299 19.4686 12.8126 19.3559 12.8039C19.1219 12.7779 18.9399 12.5612 18.9485 12.3272C18.9572 12.0932 19.1566 11.8938 19.3906 11.8938C20.9594 11.9371 22.3462 12.6912 22.6669 14.6414C22.719 14.8408 22.7363 15.0401 22.7536 15.1615Z" fill="#F7F4F4"/>
</svg>
