<svg width="36" height="36" viewBox="0 0 36 36" fill="none" xmlns="http://www.w3.org/2000/svg">
<path d="M17.2552 0C17.9843 0 18.7134 0 19.4425 0C19.5287 0.0156794 19.6071 0.0470393 19.6934 0.054879C21.5279 0.203834 23.3075 0.603659 25.0087 1.30139C28.0035 2.52439 30.5044 4.42944 32.4565 7.00871C34.2988 9.44687 35.4434 12.1829 35.8275 15.2247C35.8824 15.6324 35.9373 16.0401 35.9922 16.4399C35.9922 17.169 35.9922 17.8981 35.9922 18.6272C35.9765 18.7134 35.9451 18.7918 35.9373 18.878C35.7962 20.5793 35.4277 22.2256 34.8162 23.8171C33.9225 26.1376 32.574 28.1681 30.8258 29.9242C29.7047 31.0453 28.4504 32.0017 27.0627 32.7779C24.5462 34.189 21.8415 34.9573 18.9643 35.0514C15.797 35.1533 12.8101 34.4713 9.99565 32.9974C9.87805 32.9347 9.69774 32.919 9.56446 32.9582C8.52178 33.2796 7.48694 33.6167 6.44425 33.946C4.91551 34.4321 3.37892 34.9181 1.85017 35.412C1.27003 35.6002 0.697735 35.804 0.117596 36C0.0783972 35.9608 0.0391986 35.9216 0 35.8824C0.0627178 35.7491 0.133275 35.6159 0.180313 35.4669C0.572299 34.3145 0.956446 33.162 1.34843 32.0096C1.93641 30.277 2.52439 28.5523 3.10453 26.8118C3.15157 26.6786 3.12021 26.4904 3.05749 26.3571C2.84582 25.9103 2.59495 25.4791 2.3676 25.0322C1.37195 23.0331 0.854529 20.9085 0.689895 18.6899C0.55662 16.8711 0.736934 15.0758 1.17596 13.304C1.74042 11.007 2.7439 8.91376 4.17073 7.02439C5.6054 5.13502 7.34582 3.58275 9.39983 2.39896C11.4303 1.223 13.6019 0.470384 15.9303 0.172475C16.385 0.109757 16.8162 0.054878 17.2552 0ZM4.45296 31.6254C4.71167 31.547 4.92335 31.4922 5.12718 31.4294C6.72648 30.9199 8.31794 30.4103 9.91725 29.9164C10.0505 29.8772 10.2387 29.9007 10.3641 29.9634C11.0383 30.3005 11.689 30.7004 12.3711 31.0061C14.8328 32.1193 17.4199 32.4486 20.0854 32.1585C22.108 31.939 23.9974 31.2883 25.7613 30.2692C27.7056 29.1481 29.3206 27.6507 30.5906 25.8084C31.6882 24.2169 32.4486 22.4765 32.8484 20.5714C33.3267 18.3057 33.2875 16.0557 32.6916 13.8293C31.8371 10.615 30.0732 7.98868 27.4547 5.94251C25.6908 4.56272 23.7152 3.61411 21.5122 3.14373C17.9451 2.39112 14.5348 2.83798 11.3206 4.54704C9.08624 5.73084 7.27526 7.39286 5.87979 9.50174C4.90767 10.9678 4.22561 12.5592 3.83362 14.2761C3.52004 15.6481 3.42596 17.0357 3.50436 18.4469C3.57491 19.7404 3.83362 20.9948 4.24129 22.2099C4.69599 23.5584 5.34669 24.8127 6.16202 25.9887C6.23258 26.0906 6.2561 26.2787 6.2169 26.3963C5.75436 27.784 5.28397 29.1716 4.81359 30.5592C4.69599 30.8885 4.58624 31.2334 4.45296 31.6254Z" fill="#F7F4F4"/>
<path d="M12.8413 9.549C13.0216 9.549 13.194 9.54116 13.3665 9.549C13.6252 9.56468 13.8604 9.65092 13.978 9.90179C14.1975 10.38 14.417 10.8582 14.6209 11.3365C14.9188 12.0185 15.1775 12.7241 15.4911 13.3983C15.7028 13.8452 15.6008 14.2293 15.3421 14.5821C15.0521 14.9819 14.7228 15.3661 14.4092 15.7424C14.1583 16.0403 14.1113 16.299 14.3151 16.6283C15.4519 18.4784 16.9022 20.015 18.8386 21.042C19.3169 21.3007 19.8186 21.5124 20.3204 21.7241C20.6888 21.873 20.9005 21.8025 21.1514 21.4967C21.5826 20.9715 22.0137 20.4462 22.4371 19.9131C22.7272 19.5446 22.9623 19.4584 23.3857 19.6466C24.5773 20.1953 25.7533 20.7676 26.9371 21.3243C27.188 21.4419 27.2899 21.6379 27.282 21.8966C27.2742 22.5473 27.1723 23.1744 26.89 23.7624C26.6705 24.225 26.2864 24.5464 25.8709 24.8286C24.6949 25.6283 23.4249 26.0124 22.0137 25.6126C21.0886 25.346 20.1714 25.0325 19.262 24.711C17.1374 23.9662 15.3892 22.657 13.8526 21.042C12.5904 19.725 11.4928 18.2824 10.5913 16.691C9.85433 15.3818 9.50154 13.9784 9.83081 12.4654C10.066 11.3992 10.6383 10.529 11.4693 9.83123C11.8691 9.51764 12.3552 9.48628 12.8413 9.549Z" fill="#F7F4F4"/>
</svg>
