<svg width="36" height="37" viewBox="0 0 36 37" fill="none" xmlns="http://www.w3.org/2000/svg">
<path d="M26.5622 10.2153C27.1545 10.2153 27.5468 10.7153 27.4545 11.3538C27.3237 12.2692 27.093 13.1692 26.9083 14.0692C26.093 17.9384 25.2699 21.8076 24.4468 25.6846C24.4007 25.8999 24.3468 26.1076 24.2391 26.2999C24.0237 26.6999 23.6622 26.8538 23.2237 26.7384C22.9776 26.6769 22.7545 26.5615 22.5545 26.4076C21.2007 25.3999 19.8391 24.3999 18.4853 23.3846C18.2853 23.2384 18.1699 23.2461 18.0007 23.423C17.3391 24.0923 16.6622 24.7461 16.0007 25.4153C15.693 25.723 15.3314 25.8153 14.916 25.7692C14.7314 25.7461 14.6391 25.623 14.593 25.4615C14.3007 24.5615 14.0083 23.6538 13.716 22.7538C13.4314 21.8692 13.1391 20.9769 12.8545 20.0923C12.8083 19.9461 12.7314 19.8769 12.5853 19.8307C11.2699 19.423 9.9545 19.0076 8.63912 18.5999C8.40835 18.5307 8.16989 18.4538 7.96989 18.3153C7.67758 18.1076 7.63912 17.8384 7.87758 17.5615C8.07758 17.323 8.34681 17.1846 8.63143 17.0769C10.8391 16.223 13.0545 15.3692 15.2622 14.5153C18.5237 13.2538 21.7853 11.9999 25.0468 10.7461C25.4314 10.5999 25.816 10.4538 26.2007 10.2999C26.316 10.2461 26.4391 10.2153 26.5622 10.2153ZM15.0622 24.4076C15.0776 24.3999 15.093 24.3999 15.1083 24.3923C15.1237 24.3384 15.1391 24.2769 15.1468 24.223C15.2314 23.2769 15.3237 22.3384 15.4083 21.3923C15.4237 21.223 15.4776 21.0999 15.6083 20.9846C16.3853 20.2923 17.1545 19.5923 17.9314 18.8923C18.8699 18.0461 19.816 17.1999 20.7622 16.3461C21.8007 15.4153 22.8314 14.4769 23.8622 13.5384C23.9237 13.4846 24.0007 13.423 23.9468 13.323C23.9083 13.2461 23.816 13.2538 23.7468 13.2538C23.4699 13.2538 23.2545 13.4076 23.0391 13.5461C19.9545 15.4923 16.8699 17.4384 13.7853 19.3769C13.5699 19.5153 13.516 19.6461 13.6007 19.8846C14.0314 21.1615 14.4391 22.4384 14.8622 23.7153C14.916 23.9461 14.993 24.1769 15.0622 24.4076Z" fill="#F78203"/>
<path d="M18 35C27.1127 35 34.5 27.6127 34.5 18.5C34.5 9.3873 27.1127 2 18 2C8.8873 2 1.5 9.3873 1.5 18.5C1.5 27.6127 8.8873 35 18 35Z" stroke="#F78203" stroke-width="2.23776" stroke-miterlimit="10"/>
</svg>
