<svg width="125" height="123" viewBox="0 0 125 123" fill="none" xmlns="http://www.w3.org/2000/svg">
<g filter="url(#filter0_d)">
<path d="M46.1602 29.0098L46.666 24.0469H51.7656V25.2158H47.7393L47.4385 27.9297C47.9261 27.6426 48.4798 27.499 49.0996 27.499C50.0065 27.499 50.7266 27.7998 51.2598 28.4014C51.793 28.9984 52.0596 29.8073 52.0596 30.8281C52.0596 31.8535 51.7816 32.6624 51.2256 33.2549C50.6742 33.8428 49.9017 34.1367 48.9082 34.1367C48.0286 34.1367 47.3109 33.8929 46.7549 33.4053C46.1989 32.9176 45.8822 32.2432 45.8047 31.3818H47.001C47.0785 31.9515 47.2812 32.3822 47.6094 32.6738C47.9375 32.9609 48.3704 33.1045 48.9082 33.1045C49.4961 33.1045 49.9564 32.904 50.2891 32.5029C50.6263 32.1019 50.7949 31.5482 50.7949 30.8418C50.7949 30.1764 50.6126 29.6432 50.248 29.2422C49.888 28.8366 49.4072 28.6338 48.8057 28.6338C48.2542 28.6338 47.8213 28.7546 47.5068 28.9961L47.1719 29.2695L46.1602 29.0098ZM63.1064 26.6035V34H61.835V27.6494H59.3193L59.1689 30.418C59.0869 31.6895 58.8727 32.5986 58.5264 33.1455C58.1846 33.6924 57.64 33.9772 56.8926 34H56.3867V32.8857L56.749 32.8584C57.1592 32.8128 57.4531 32.5758 57.6309 32.1475C57.8086 31.7191 57.9225 30.9261 57.9727 29.7686L58.1094 26.6035H63.1064ZM68.2061 34.1367C67.2035 34.1367 66.3877 33.8086 65.7588 33.1523C65.1299 32.4915 64.8154 31.6097 64.8154 30.5068V30.2744C64.8154 29.5407 64.9544 28.8867 65.2324 28.3125C65.515 27.7337 65.9069 27.2826 66.4082 26.959C66.9141 26.6309 67.4609 26.4668 68.0488 26.4668C69.0104 26.4668 69.7578 26.7835 70.291 27.417C70.8242 28.0505 71.0908 28.9574 71.0908 30.1377V30.6641H66.0801C66.0983 31.3932 66.3102 31.9834 66.7158 32.4346C67.126 32.8812 67.6455 33.1045 68.2744 33.1045C68.721 33.1045 69.0993 33.0133 69.4092 32.8311C69.7191 32.6488 69.9902 32.4072 70.2227 32.1064L70.9951 32.708C70.3753 33.6605 69.4456 34.1367 68.2061 34.1367ZM68.0488 27.5059C67.5384 27.5059 67.11 27.6927 66.7637 28.0664C66.4173 28.4355 66.2031 28.9551 66.1211 29.625H69.8262V29.5293C69.7897 28.8867 69.6165 28.39 69.3066 28.0391C68.9967 27.6836 68.5775 27.5059 68.0488 27.5059ZM77.9746 27.6289H75.4932V34H74.2285V27.6289H71.7949V26.6035H77.9746V27.6289ZM37.2666 43.6494H33.8555V50H32.584V42.6035H37.2666V43.6494ZM42.9336 50C42.8607 49.8542 42.8014 49.5944 42.7559 49.2207C42.168 49.8314 41.4661 50.1367 40.6504 50.1367C39.9212 50.1367 39.3219 49.9316 38.8525 49.5215C38.3877 49.1068 38.1553 48.5827 38.1553 47.9492C38.1553 47.179 38.4469 46.582 39.0303 46.1582C39.6182 45.7298 40.443 45.5156 41.5049 45.5156H42.7354V44.9346C42.7354 44.4925 42.6032 44.1416 42.3389 43.8818C42.0745 43.6175 41.6849 43.4854 41.1699 43.4854C40.7188 43.4854 40.3405 43.5993 40.0352 43.8271C39.7298 44.055 39.5771 44.3307 39.5771 44.6543H38.3057C38.3057 44.2852 38.4355 43.9297 38.6953 43.5879C38.9596 43.2415 39.3151 42.9681 39.7617 42.7676C40.2129 42.5671 40.7074 42.4668 41.2451 42.4668C42.0973 42.4668 42.765 42.681 43.248 43.1094C43.7311 43.5332 43.9818 44.1188 44 44.8662V48.2705C44 48.9495 44.0866 49.4896 44.2598 49.8906V50H42.9336ZM40.835 49.0361C41.2314 49.0361 41.6074 48.9336 41.9629 48.7285C42.3184 48.5234 42.5758 48.2568 42.7354 47.9287V46.4111H41.7441C40.1947 46.4111 39.4199 46.8646 39.4199 47.7715C39.4199 48.168 39.5521 48.4779 39.8164 48.7012C40.0807 48.9245 40.4202 49.0361 40.835 49.0361ZM52.2305 46.3838C52.2305 47.5094 51.973 48.4163 51.458 49.1045C50.943 49.7926 50.2458 50.1367 49.3662 50.1367C48.4684 50.1367 47.762 49.8519 47.2471 49.2822V52.8438H45.9824V42.6035H47.1377L47.1992 43.4238C47.7142 42.7858 48.4297 42.4668 49.3457 42.4668C50.2344 42.4668 50.9362 42.8018 51.4512 43.4717C51.9707 44.1416 52.2305 45.0736 52.2305 46.2676V46.3838ZM50.9658 46.2402C50.9658 45.4062 50.7881 44.7477 50.4326 44.2646C50.0771 43.7816 49.5895 43.54 48.9697 43.54C48.2041 43.54 47.6299 43.8796 47.2471 44.5586V48.0928C47.6253 48.7673 48.2041 49.1045 48.9834 49.1045C49.5895 49.1045 50.0703 48.8652 50.4258 48.3867C50.7858 47.9036 50.9658 47.1882 50.9658 46.2402ZM58.4102 50C58.3372 49.8542 58.278 49.5944 58.2324 49.2207C57.6445 49.8314 56.9427 50.1367 56.127 50.1367C55.3978 50.1367 54.7985 49.9316 54.3291 49.5215C53.8643 49.1068 53.6318 48.5827 53.6318 47.9492C53.6318 47.179 53.9235 46.582 54.5068 46.1582C55.0947 45.7298 55.9196 45.5156 56.9814 45.5156H58.2119V44.9346C58.2119 44.4925 58.0798 44.1416 57.8154 43.8818C57.5511 43.6175 57.1615 43.4854 56.6465 43.4854C56.1953 43.4854 55.8171 43.5993 55.5117 43.8271C55.2064 44.055 55.0537 44.3307 55.0537 44.6543H53.7822C53.7822 44.2852 53.9121 43.9297 54.1719 43.5879C54.4362 43.2415 54.7917 42.9681 55.2383 42.7676C55.6895 42.5671 56.1839 42.4668 56.7217 42.4668C57.5739 42.4668 58.2415 42.681 58.7246 43.1094C59.2077 43.5332 59.4583 44.1188 59.4766 44.8662V48.2705C59.4766 48.9495 59.5632 49.4896 59.7363 49.8906V50H58.4102ZM56.3115 49.0361C56.708 49.0361 57.084 48.9336 57.4395 48.7285C57.7949 48.5234 58.0524 48.2568 58.2119 47.9287V46.4111H57.2207C55.6712 46.4111 54.8965 46.8646 54.8965 47.7715C54.8965 48.168 55.0286 48.4779 55.293 48.7012C55.5573 48.9245 55.8968 49.0361 56.3115 49.0361ZM67.502 50H66.2373V46.8418H62.8398V50H61.5684V42.6035H62.8398V45.8096H66.2373V42.6035H67.502V50ZM75.0352 43.6289H72.5537V50H71.2891V43.6289H68.8555V42.6035H75.0352V43.6289ZM81.0508 42.6035H82.3154V50H81.0508V44.6064L77.6396 50H76.375V42.6035H77.6396V48.0039L81.0508 42.6035ZM89.1309 42.6035H90.3955V50H89.1309V44.6064L85.7197 50H84.4551V42.6035H85.7197V48.0039L89.1309 42.6035Z" fill="url(#paint0_linear)"/>
</g>
<g filter="url(#filter1_d)">
<path fill-rule="evenodd" clip-rule="evenodd" d="M61.897 0C85.1292 9.66269 104.164 24.4326 118.639 42.2278C116.847 67.846 109.015 90.9533 96.9655 110.554C72.6254 116.724 48.7507 116.235 26.8286 110.554C13.5781 88.7489 6.65425 65.3395 5.15527 42.2278C21.3059 22.5812 40.9016 8.60236 61.897 0ZM61.897 6.75368C82.4005 15.2812 99.1994 28.3165 111.974 44.0214C110.393 66.6309 103.481 87.0239 92.8466 104.322C71.3652 109.768 50.2948 109.337 30.9476 104.322C19.2532 85.0788 13.1428 64.4186 11.8198 44.0214C26.0733 26.6825 43.3676 14.3456 61.897 6.75368Z" fill="url(#paint1_linear)"/>
<g filter="url(#filter2_d)">
<path fill-rule="evenodd" clip-rule="evenodd" d="M61.0544 0.819733C84.4146 10.305 103.554 24.8037 118.109 42.2723C116.307 67.4203 108.432 90.1033 96.316 109.344C71.8419 115.401 47.8357 114.921 25.7929 109.344C12.4692 87.9394 5.50728 64.9597 4 42.2723C20.2396 22.9864 39.9433 9.26418 61.0544 0.819733ZM61.0544 7.44937C81.6708 15.8205 98.5624 28.6164 111.408 44.0331C109.817 66.2274 102.867 86.2462 92.1744 103.227C70.5748 108.573 49.3883 108.149 29.9345 103.227C18.1756 84.3366 12.0316 64.0558 10.7013 44.0331C25.0334 27.0125 42.4228 14.902 61.0544 7.44937Z" fill="url(#paint2_linear)"/>
</g>
<path fill-rule="evenodd" clip-rule="evenodd" d="M60.9 58.9774C74.1556 59.2819 92.1152 56.9961 103.075 53.609L61.7239 73.3954L89.3047 102.03L60.4943 85.461L31.287 101.102L59.8536 73.3888L19.2031 54.5287C32.3649 58.7901 45.739 58.6293 60.9 58.9774Z" fill="url(#paint3_linear)"/>
<g filter="url(#filter3_d)">
<path fill-rule="evenodd" clip-rule="evenodd" d="M59.9524 59.3673C71.9784 59.6439 91.7633 57.075 102.211 53.609L61.0979 72.916L87.8922 100.301L59.9524 84.7104L32.0125 100.301L59.1309 72.916L19.2031 53.9479C31.1424 57.8123 46.1997 59.0507 59.9524 59.3673Z" fill="url(#paint4_linear)"/>
</g>
</g>
<defs>
<filter id="filter0_d" x="32.584" y="24.0469" width="59.8115" height="30.7969" filterUnits="userSpaceOnUse" color-interpolation-filters="sRGB">
<feFlood flood-opacity="0" result="BackgroundImageFix"/>
<feColorMatrix in="SourceAlpha" type="matrix" values="0 0 0 0 0 0 0 0 0 0 0 0 0 0 0 0 0 0 127 0"/>
<feOffset dx="1" dy="1"/>
<feGaussianBlur stdDeviation="0.5"/>
<feColorMatrix type="matrix" values="0 0 0 0 0 0 0 0 0 0 0 0 0 0 0 0 0 0 0.9 0"/>
<feBlend mode="normal" in2="BackgroundImageFix" result="effect1_dropShadow"/>
<feBlend mode="normal" in="SourceGraphic" in2="effect1_dropShadow" result="shape"/>
</filter>
<filter id="filter1_d" x="0" y="0" width="122.639" height="123" filterUnits="userSpaceOnUse" color-interpolation-filters="sRGB">
<feFlood flood-opacity="0" result="BackgroundImageFix"/>
<feColorMatrix in="SourceAlpha" type="matrix" values="0 0 0 0 0 0 0 0 0 0 0 0 0 0 0 0 0 0 127 0"/>
<feOffset dy="4"/>
<feGaussianBlur stdDeviation="2"/>
<feColorMatrix type="matrix" values="0 0 0 0 0 0 0 0 0 0 0 0 0 0 0 0 0 0 0.25 0"/>
<feBlend mode="normal" in2="BackgroundImageFix" result="effect1_dropShadow"/>
<feBlend mode="normal" in="SourceGraphic" in2="effect1_dropShadow" result="shape"/>
</filter>
<filter id="filter2_d" x="4" y="0.819733" width="120.109" height="118.889" filterUnits="userSpaceOnUse" color-interpolation-filters="sRGB">
<feFlood flood-opacity="0" result="BackgroundImageFix"/>
<feColorMatrix in="SourceAlpha" type="matrix" values="0 0 0 0 0 0 0 0 0 0 0 0 0 0 0 0 0 0 127 0"/>
<feOffset dx="3" dy="3"/>
<feGaussianBlur stdDeviation="1.5"/>
<feColorMatrix type="matrix" values="0 0 0 0 0 0 0 0 0 0 0 0 0 0 0 0 0 0 0.7 0"/>
<feBlend mode="normal" in2="BackgroundImageFix" result="effect1_dropShadow"/>
<feBlend mode="normal" in="SourceGraphic" in2="effect1_dropShadow" result="shape"/>
</filter>
<filter id="filter3_d" x="19.2031" y="53.609" width="89.0075" height="52.6917" filterUnits="userSpaceOnUse" color-interpolation-filters="sRGB">
<feFlood flood-opacity="0" result="BackgroundImageFix"/>
<feColorMatrix in="SourceAlpha" type="matrix" values="0 0 0 0 0 0 0 0 0 0 0 0 0 0 0 0 0 0 127 0"/>
<feOffset dx="3" dy="3"/>
<feGaussianBlur stdDeviation="1.5"/>
<feColorMatrix type="matrix" values="0 0 0 0 0 0 0 0 0 0 0 0 0 0 0 0 0 0 0.5 0"/>
<feBlend mode="normal" in2="BackgroundImageFix" result="effect1_dropShadow"/>
<feBlend mode="normal" in="SourceGraphic" in2="effect1_dropShadow" result="shape"/>
</filter>
<linearGradient id="paint0_linear" x1="74" y1="25" x2="41" y2="54" gradientUnits="userSpaceOnUse">
<stop stop-color="#B1ADAD"/>
<stop offset="0.480663" stop-color="#F9F9F9"/>
<stop offset="1" stop-color="#B2B2B2"/>
</linearGradient>
<linearGradient id="paint1_linear" x1="83.1885" y1="17.7256" x2="51.196" y2="124.944" gradientUnits="userSpaceOnUse">
<stop offset="0.0203398" stop-color="#E1E1E1"/>
<stop offset="1" stop-color="#CECECE"/>
</linearGradient>
<linearGradient id="paint2_linear" x1="13.5822" y1="114.135" x2="119.162" y2="33.4233" gradientUnits="userSpaceOnUse">
<stop stop-color="#4B4B4B"/>
<stop offset="0.519909" stop-color="white"/>
<stop offset="1" stop-color="#959595"/>
</linearGradient>
<linearGradient id="paint3_linear" x1="65.7326" y1="53.7762" x2="46.967" y2="99.7429" gradientUnits="userSpaceOnUse">
<stop stop-color="#D1D1D1"/>
<stop offset="1" stop-color="#7A7A7A"/>
</linearGradient>
<linearGradient id="paint4_linear" x1="63.0909" y1="103.308" x2="78.8817" y2="51.8113" gradientUnits="userSpaceOnUse">
<stop stop-color="#2F2F2F"/>
<stop offset="0.627028" stop-color="#EAEAEA"/>
<stop offset="0.979022" stop-color="#737373"/>
</linearGradient>
</defs>
</svg>
