<svg width="36" height="46" viewBox="0 0 36 46" fill="none" xmlns="http://www.w3.org/2000/svg">
<path d="M30.8984 45.4491C22.5127 45.4491 14.127 45.4491 5.74131 45.4491C5.62776 45.3876 5.52294 45.326 5.40064 45.2733C2.59668 44.1834 0.858398 41.6344 0.858398 38.6195C0.858398 28.1511 0.858398 17.6826 0.858398 7.22295C0.858398 4.32237 2.56174 1.78216 5.24341 0.683456C5.41811 0.613139 5.57535 0.525243 5.74131 0.446136C14.127 0.446136 22.5127 0.446136 30.8984 0.446136C31.0119 0.507664 31.1167 0.569191 31.239 0.621929C34.043 1.71184 35.7813 4.26084 35.7813 7.27569C35.7813 17.7441 35.7813 28.2126 35.7813 38.6723C35.7813 41.5729 34.0779 44.1131 31.3963 45.2118C31.2303 45.2821 31.0643 45.37 30.8984 45.4491ZM4.33496 22.9564C4.33496 23.5893 4.33496 24.2133 4.33496 24.8462C4.33496 29.4783 4.31749 34.1017 4.35243 38.7338C4.36117 40.6939 5.90728 42.2057 7.84647 42.2057C14.8345 42.2145 21.8226 42.2233 28.8107 42.1881C29.3959 42.1881 30.0336 41.9948 30.549 41.7047C31.8418 40.984 32.3222 39.7886 32.3222 38.3207C32.3134 28.5466 32.3135 18.7813 32.3135 9.00725C32.3135 8.40955 32.3222 7.80306 32.3047 7.20537C32.2436 5.16617 30.7411 3.68072 28.7146 3.68072C21.7877 3.68072 14.8607 3.68072 7.92508 3.68951C7.58442 3.68951 7.22628 3.73346 6.89434 3.83015C5.28709 4.28721 4.3437 5.64081 4.33496 7.47785C4.33496 12.6462 4.33496 17.7969 4.33496 22.9564Z" fill="#F7F4F4"/>
<path d="M18.3458 5.90451C21.1236 5.90451 23.9014 5.90451 26.6878 5.90451C28.6707 5.90451 30.1994 7.4427 30.1906 9.44674C30.1906 10.2642 30.243 11.0992 30.112 11.899C29.8412 13.5515 28.4261 14.7381 26.7665 14.7469C21.1323 14.7557 15.4982 14.7645 9.8728 14.7469C7.96855 14.7381 6.44865 13.1648 6.45738 11.2486C6.45738 10.4048 6.40497 9.53464 6.54473 8.70841C6.81552 7.06474 8.26554 5.9133 9.92521 5.9133C12.7292 5.90451 15.5331 5.90451 18.3458 5.90451Z" fill="#F7F4F4"/>
<path d="M23.7969 32.4404C23.7969 30.8759 23.7969 29.3025 23.7969 27.738C23.8056 26.3228 24.6442 25.479 26.0592 25.4702C26.6707 25.4702 27.2822 25.4615 27.8936 25.4702C29.2126 25.4878 30.0774 26.358 30.0774 27.6852C30.0774 30.8759 30.0774 34.0753 30.0774 37.2659C30.0774 38.5756 29.1864 39.4633 27.8761 39.4633C27.2385 39.4633 26.5921 39.4633 25.9544 39.4633C24.6878 39.4633 23.8056 38.602 23.7969 37.3187C23.7881 35.6926 23.7969 34.0665 23.7969 32.4404Z" fill="#F7F4F4"/>
<path d="M6.3354 20.882C6.3354 20.4865 6.31793 20.091 6.3354 19.6954C6.40528 18.6231 7.20891 17.7969 8.27459 17.7529C9.06075 17.7178 9.84691 17.7178 10.6331 17.7529C11.7512 17.8057 12.581 18.6846 12.5985 19.8185C12.6159 20.5392 12.6159 21.2512 12.5985 21.972C12.5723 23.1586 11.69 24.0375 10.5108 24.0639C9.7945 24.0815 9.08696 24.0815 8.37068 24.0639C7.24385 24.0375 6.38781 23.1937 6.32666 22.0686C6.31793 21.6731 6.3354 21.2776 6.3354 20.882Z" fill="#F7F4F4"/>
<path d="M18.2065 17.7441C18.5821 17.7441 18.9665 17.7266 19.3421 17.7441C20.4864 17.8057 21.325 18.6758 21.3424 19.8273C21.3599 20.548 21.3599 21.26 21.3424 21.9808C21.3162 23.1498 20.4427 24.0287 19.2897 24.0639C18.5647 24.0815 17.8309 24.0815 17.1059 24.0639C15.9878 24.0287 15.123 23.1937 15.0706 22.0599C15.0357 21.2864 15.0357 20.5041 15.0706 19.7306C15.1143 18.6143 15.9529 17.7969 17.071 17.7441C17.4553 17.7266 17.8309 17.7441 18.2065 17.7441Z" fill="#F7F4F4"/>
<path d="M26.9327 17.7441C27.3083 17.7441 27.6927 17.7266 28.0683 17.7441C29.2126 17.7969 30.0511 18.6671 30.0861 19.8185C30.1035 20.5392 30.1035 21.2512 30.0861 21.972C30.0599 23.1586 29.1776 24.0375 27.9984 24.0639C27.2821 24.0815 26.5746 24.0815 25.8583 24.0639C24.7315 24.0375 23.8667 23.1937 23.8143 22.0686C23.7794 21.2776 23.7794 20.4865 23.8143 19.6954C23.8667 18.6231 24.6878 17.8145 25.7535 17.7529C26.1466 17.7266 26.5396 17.7529 26.9327 17.7441Z" fill="#F7F4F4"/>
<path d="M6.3354 28.6345C6.3354 28.239 6.31793 27.8434 6.3354 27.4479C6.39655 26.3668 7.20017 25.5406 8.25712 25.4878C9.05202 25.4527 9.85564 25.4527 10.6593 25.4878C11.7512 25.5406 12.5723 26.4195 12.6072 27.527C12.6247 28.2566 12.6247 28.9949 12.6072 29.7244C12.5723 30.8847 11.6988 31.7636 10.537 31.79C9.8207 31.8076 9.11316 31.8076 8.39688 31.79C7.25258 31.7636 6.38781 30.9198 6.32666 29.7772C6.31793 29.3992 6.3354 29.0213 6.3354 28.6345Z" fill="#F7F4F4"/>
<path d="M15.0793 28.6257C15.0793 28.2126 15.0531 27.8083 15.088 27.3952C15.1579 26.3668 15.9528 25.5494 16.9748 25.4966C17.7872 25.4527 18.6082 25.4527 19.4206 25.4966C20.495 25.5494 21.3161 26.4107 21.3511 27.5007C21.3773 28.2478 21.3773 28.9949 21.3511 29.742C21.3161 30.9022 20.4339 31.7724 19.2721 31.7988C18.5558 31.8164 17.8483 31.8164 17.132 31.7988C15.9877 31.7724 15.1317 30.9198 15.0793 29.7684C15.0531 29.3904 15.0705 29.0125 15.0793 28.6257C15.0705 28.6257 15.0705 28.6257 15.0793 28.6257Z" fill="#F7F4F4"/>
<path d="M9.46245 33.2139C9.83806 33.2139 10.2224 33.1963 10.598 33.2139C11.7423 33.2755 12.5809 34.1368 12.6071 35.2883C12.6246 36.009 12.6246 36.721 12.6071 37.4417C12.5809 38.6283 11.6986 39.5073 10.5194 39.5337C9.80312 39.5513 9.09558 39.5513 8.3793 39.5337C7.25247 39.5073 6.3877 38.6635 6.33529 37.5384C6.30035 36.7474 6.30035 35.9563 6.33529 35.1652C6.3877 34.0929 7.2088 33.2842 8.27448 33.2227C8.67629 33.1963 9.06937 33.2227 9.46245 33.2139Z" fill="#F7F4F4"/>
<path d="M15.0791 36.3782C15.0791 35.9651 15.0529 35.5608 15.0878 35.1476C15.1577 34.0929 15.9613 33.2754 17.0095 33.2315C17.8044 33.1963 18.608 33.1963 19.4117 33.2315C20.5036 33.2842 21.3334 34.1544 21.3596 35.2707C21.3771 36.0002 21.3771 36.7386 21.3596 37.4681C21.3247 38.6283 20.4511 39.5073 19.2981 39.5425C18.5818 39.56 17.8743 39.56 17.158 39.5425C16.0137 39.5161 15.1489 38.6811 15.0878 37.5296C15.0529 37.1429 15.0703 36.7561 15.0791 36.3782C15.0703 36.3782 15.0703 36.3782 15.0791 36.3782Z" fill="#F7F4F4"/>
</svg>
