<svg width="72" height="72" viewBox="0 0 72 72" fill="none" xmlns="http://www.w3.org/2000/svg">
<path d="M26.5638 23.8199C26.958 23.8199 27.2537 23.82 27.648 23.7214C27.4508 22.6372 27.2537 21.6516 27.0566 20.666C26.2681 16.1323 26.3667 11.6971 27.648 7.26186C28.2393 5.1921 29.2249 3.22089 30.999 1.74249C33.2659 -0.228713 37.9968 -0.622936 40.4608 1.05259C40.855 1.34827 41.1507 1.93962 41.3478 2.43242C41.5449 3.02378 41.5449 3.61514 41.5449 4.30506C41.6435 7.36042 42.1363 10.4158 43.1219 13.3726C43.9104 15.738 44.9945 18.0049 46.4729 19.9761C48.7398 23.0315 51.9923 24.2142 55.7376 24.2142C58.8915 24.2142 61.9469 23.7214 65.1008 23.5243C66.5792 23.4257 68.0576 23.4257 69.536 23.4257C70.5216 23.4257 71.2115 24.0171 71.4086 25.0027C71.7043 25.9883 72 26.9739 72 27.9595C72 38.7025 71.9014 49.4456 71.9014 60.1886C71.9014 62.4555 71.2115 63.4411 68.7475 63.9339C67.1705 64.2296 65.495 64.2296 63.8195 64.5253C59.9757 65.3137 56.2304 66.1022 52.3866 67.0878C46.1773 68.6648 39.8694 69.7489 33.5616 70.9317C29.422 71.7201 25.3811 71.3259 21.3401 70.8331C19.6646 70.636 18.0876 70.5374 16.5106 70.1432C14.7366 69.7489 12.9625 69.1576 11.3855 68.3691C8.42874 66.7922 7.24602 64.0325 7.44314 60.6814C7.44314 59.6958 7.24602 59.0059 6.5561 58.2174C3.89498 55.4578 2.90937 52.2052 3.50073 48.46C3.59929 47.9672 3.50074 47.5729 3.1065 47.1787C-0.934463 42.6449 -1.03304 36.8299 2.8108 32.099C3.10648 31.7048 3.10648 31.4091 2.8108 31.0149C1.43096 28.4523 0.839606 25.6926 1.43097 22.7358C1.82521 20.666 2.81082 18.7934 4.0921 17.1179C4.38778 16.7236 4.88056 16.5265 5.2748 16.4279C11.9769 15.0481 18.4819 15.3438 24.3955 19.2862C25.5782 20.0747 26.1696 20.9617 26.2681 22.3415C26.4652 22.8343 26.5638 23.2286 26.5638 23.8199ZM22.1286 23.8199C22.3257 23.13 22.03 22.8344 21.6358 22.5387C17.2006 19.8776 12.3711 19.4833 7.34457 20.3703C7.14745 20.3703 6.85177 20.5675 6.75321 20.7646C5.86617 21.9473 5.47194 23.3271 5.47194 24.8055C5.47194 26.7767 6.16185 28.5509 7.34457 30.1278C8.23161 31.4091 8.0345 32.9861 6.95034 34.0702C6.0633 34.9573 5.17624 36.14 4.782 37.3227C3.59928 40.3781 4.88056 42.9406 7.14744 45.0104C8.2316 45.996 8.42875 46.883 8.0345 48.2629C7.5417 49.8398 7.54168 51.5153 8.13304 53.0923C8.7244 54.5707 9.80859 55.6549 10.9913 56.6405C11.7798 57.2318 12.0755 57.9217 11.9769 58.8088C11.8783 59.4987 11.7798 60.1887 11.7798 60.8786C11.5827 62.8498 12.5683 64.4267 14.3423 65.1166C15.5251 65.5109 16.7078 65.9051 17.8905 66.1022C20.5516 66.4965 23.2127 66.8907 25.8739 67.0878C27.2537 67.285 28.7321 67.3835 30.2105 67.1864C33.2659 66.7921 36.4198 66.1022 39.4752 65.6094C45.6845 64.5253 51.8937 63.0469 57.9059 61.1742C58.3001 61.0757 58.5958 60.9771 58.4973 60.4843C58.103 57.0347 57.7088 53.6837 57.4131 50.2341C56.8217 43.8277 56.6246 37.4213 56.9203 31.0149C56.9203 30.2264 56.9203 29.5365 56.9203 28.6494C56.5261 28.6494 56.1318 28.6494 55.7376 28.6494C49.824 28.5509 45.2902 25.8897 42.0377 20.9617C39.4752 17.1179 38.2924 12.7812 37.7011 8.14889C37.504 6.96617 37.4054 5.78347 37.3068 4.50219C36.5184 4.60075 35.7299 4.50217 35.04 4.69929C32.9702 5.29065 32.0832 6.96619 31.4918 8.83883C30.5062 12.2884 30.7033 15.738 31.2947 19.1876C31.4918 20.4689 31.7875 21.8488 32.0832 23.13C32.4774 23.0315 32.7731 23.0315 32.9702 23.0315C34.2515 22.8344 35.2371 23.5243 35.5328 24.9041C35.7299 26.1854 35.1385 26.9739 33.7587 27.2695C31.6889 27.5652 29.7177 27.9595 27.648 28.1566C24.0012 28.4523 20.4531 28.1566 16.8063 27.4667C15.7222 27.2696 15.1308 26.4811 15.3279 25.3969C15.5251 23.9185 16.6092 23.13 18.3833 23.3271C19.566 23.4257 20.8473 23.6228 22.1286 23.8199ZM62.5382 59.893C63.9181 59.7944 65.1993 59.6958 66.4806 59.6958C67.2691 59.6958 67.5648 59.4987 67.5648 58.7102C67.5648 48.7557 67.6634 38.8011 67.6634 28.8465C67.6634 28.6494 67.6634 28.4523 67.5648 28.058C65.5936 28.2552 63.6224 28.3537 61.6512 28.5508C61.4541 28.5508 61.257 28.9451 61.1584 29.1422C61.0598 30.4235 60.9613 31.7048 60.9613 33.0846C60.7641 40.1809 61.1584 47.3758 61.8483 54.4721C62.144 56.1477 62.3411 57.9218 62.5382 59.893Z" fill="#F7F4F4"/>
</svg>
